<svg xmlns="http://www.w3.org/2000/svg" width="32" height="32"><path d="M27.497 31.246 20.768 4.028l1.193-.689-.608-1.054-1.589.917-.223.129A7.617 7.617 0 0 0 15.207.265c-1.982-.531-4.051-.258-5.828.767S6.332 3.714 5.8 5.696a7.617 7.617 0 0 0 .489 5.286l-1.804 1.041.608 1.054 1.184-.684 7.046 6.777-.003.004.041.033 13.123 12.622a.608.608 0 0 0 1.012-.584zM6.975 6.011a6.421 6.421 0 0 1 3.012-3.925 6.425 6.425 0 0 1 4.904-.646 6.416 6.416 0 0 1 3.596 2.499L9.268 9.261a4.262 4.262 0 0 1 1.82-5.266.608.608 0 1 0-.608-1.054 5.482 5.482 0 0 0-2.277 6.935l-.863.498a6.417 6.417 0 0 1-.366-4.364zM18.322 22.29l1.155-1.75-1.015-.67-1.031 1.562-2.469-2.375 2.094-2.661-.956-.752-2.019 2.566-2.724-2.62 2.959-3.955-.974-.729-2.868 3.834-3.097-2.979.023-.014 12.273-7.086 6.139 24.832-7.489-7.203z"/></svg>